<svg width="13" height="14" fill="none" xmlns="http://www.w3.org/2000/svg"><g clip-path="url(#clip0)" fill="#fff"><path d="M12.867 8.106c.424-3.512-.203-5.73-1.334-6.732C9.71-.338 3.553-.593 1.37 1.45.39 2.45.048 3.917.007 5.731c-.037 1.818-.081 5.22 3.132 6.146h.004l-.004 1.41s-.022.571.347.684c.425.135.613-.13 1.932-1.679 2.2.19 3.889-.244 4.08-.306.447-.15 2.963-.477 3.369-3.88zm-7.231 3.191S4.243 13.01 3.81 13.454c-.14.146-.295.131-.295-.157l.01-2.342C.802 10.19.96 7.29.99 5.775c.03-1.516.31-2.758 1.14-3.596C4.045.409 9.444.806 10.82 2.081c1.681 1.471 1.083 5.624 1.086 5.767-.347 2.841-2.382 3.02-2.758 3.143-.16.055-1.647.43-3.512.306z"/><path d="M6.408 2.514c-.229 0-.229.35 0 .353 1.765.015 3.22 1.228 3.235 3.454 0 .233.347.233.347-.004-.022-2.4-1.61-3.792-3.582-3.803z"/><path d="M8.726 5.95c-.003.232.344.243.347.006.03-1.322-.797-2.411-2.352-2.528-.23-.014-.251.335-.026.354 1.352.102 2.06 1.009 2.031 2.167zm-.369 1.503c-.292-.167-.591-.062-.713.102l-.258.328c-.13.168-.373.146-.373.146-1.78-.466-2.257-2.302-2.257-2.302s-.022-.248.14-.383l.322-.262c.162-.128.262-.43.1-.725-.436-.78-.732-1.05-.88-1.253-.158-.193-.395-.237-.638-.106h-.004c-.51.295-1.071.849-.89 1.417.306.598.868 2.51 2.655 3.953.842.681 2.172 1.38 2.737 1.544l.004.008c.557.182 1.096-.39 1.388-.911v-.011c.13-.251.085-.488-.103-.645a7.11 7.11 0 00-1.23-.9z"/><path d="M6.965 4.732c.569.033.842.324.872.925.01.233.354.219.347-.015-.037-.783-.454-1.22-1.2-1.264-.226-.014-.248.34-.019.354z"/></g><defs><clipPath id="clip0"><path fill="#fff" d="M0 0h13v14H0z"/></clipPath></defs></svg>