<svg width="12" height="12" fill="none" xmlns="http://www.w3.org/2000/svg"><path d="M6.002 0H6C2.69 0 0 2.69 0 6c0 1.313.422 2.529 1.141 3.516l-.747 2.229 2.306-.739c.95.63 2.081.994 3.302.994A6.005 6.005 0 0012 6c0-3.31-2.69-6-5.998-6zm3.49 8.473c-.145.407-.72.747-1.176.846-.314.065-.722.12-2.103-.453-1.762-.73-2.899-2.521-2.988-2.639-.084-.117-.712-.949-.712-1.809s.438-1.28.614-1.46c.145-.148.384-.216.614-.216.075 0 .14.005.201.007.176.007.265.019.382.296.146.349.497 1.209.54 1.298.041.089.084.209.025.326-.056.12-.105.173-.194.274-.09.103-.174.18-.26.29-.083.097-.174.197-.07.373.102.174.454.748.972 1.21.67.595 1.211.787 1.406.867.145.06.316.047.422-.066.133-.145.3-.384.469-.62.12-.17.271-.19.43-.132.163.056 1.02.48 1.196.567.176.09.293.131.335.204.042.08.042.426-.103.837z" fill="#fff"/></svg>